<svg xmlns="http://www.w3.org/2000/svg" xmlns:xlink="http://www.w3.org/1999/xlink"><symbol fill="none" viewBox="0 0 24 24" id="burger" xmlns="http://www.w3.org/2000/svg"><path d="M3 7h18M3 12h18M3 17h18" stroke="currentColor" stroke-width="2" stroke-linecap="round"/></symbol><symbol viewBox="0 0 24 24" id="calendar" xmlns="http://www.w3.org/2000/svg"><g fill="none" stroke="currentColor" stroke-linecap="round" stroke-linejoin="round" stroke-width="2"><rect width="20" height="18" x="2" y="4" rx="4"/><path d="M8 2v4m8-4v4M2 10h20"/></g></symbol><symbol fill="none" viewBox="0 0 14 8" id="caret" xmlns="http://www.w3.org/2000/svg"><path d="M13.71.296a1 1 0 0 0-1.42 0l-4.58 4.58a1 1 0 0 1-1.42 0L1.71.296a1 1 0 1 0-1.42 1.41l4.59 4.59a3 3 0 0 0 4.24 0l4.59-4.59a1 1 0 0 0 0-1.41Z" fill="currentColor"/></symbol><symbol fill="none" viewBox="0 0 7 5" id="check" xmlns="http://www.w3.org/2000/svg"><path d="m.5 2.5 1.998 2L6.5.5" stroke="currentColor" stroke-linecap="round" stroke-linejoin="round"/></symbol><symbol fill="none" viewBox="0 0 15 15" id="close" xmlns="http://www.w3.org/2000/svg"><path d="M14 1 1 14M1 1l13 13" stroke="currentColor" stroke-width="2" stroke-linecap="round" stroke-linejoin="round"/></symbol><symbol viewBox="0 0 1024 1024" id="folder" xmlns="http://www.w3.org/2000/svg"><path fill="currentColor" d="M928 444H820V330.4c0-17.7-14.3-32-32-32H473L355.7 186.2a8.15 8.15 0 0 0-5.5-2.2H96c-17.7 0-32 14.3-32 32v592c0 17.7 14.3 32 32 32h698c13 0 24.8-7.9 29.7-20l134-332c1.5-3.8 2.3-7.9 2.3-12 0-17.7-14.3-32-32-32M136 256h188.5l119.6 114.4H748V444H238c-13 0-24.8 7.9-29.7 20L136 643.2zm635.3 512H159l103.3-256h612.4z"/></symbol><symbol fill="none" viewBox="0 0 9 16" id="left-chevron" xmlns="http://www.w3.org/2000/svg"><path d="M8 15 1 8l7-7" stroke="currentColor" stroke-width="2" stroke-linecap="round" stroke-linejoin="round"/></symbol><symbol viewBox="0 0 24 24" fill="none" id="moon" xmlns="http://www.w3.org/2000/svg"><path d="M3.32 11.684a9 9 0 0 0 17.357 3.348A9 9 0 0 1 8.32 6.683c0-1.18.23-2.32.644-3.353a9.003 9.003 0 0 0-5.645 8.354Z" stroke="currentColor" stroke-width="2" stroke-linecap="round" stroke-linejoin="round"/></symbol><symbol fill="none" viewBox="0 0 20 20" id="plus" xmlns="http://www.w3.org/2000/svg"><path d="M10 1v18M1 10h18" stroke="currentColor" stroke-width="2" stroke-linecap="round" stroke-linejoin="round"/></symbol><symbol fill="none" viewBox="0 0 9 16" id="right-chevron" xmlns="http://www.w3.org/2000/svg"><path d="m1 15 7-7-7-7" stroke="currentColor" stroke-width="2" stroke-linecap="round" stroke-linejoin="round"/></symbol><symbol viewBox="0 0 24 24" fill="none" id="sun" xmlns="http://www.w3.org/2000/svg"><g fill="currentColor"><path d="M11 1a1 1 0 1 1 2 0v2a1 1 0 1 1-2 0V1Z"/><path fill-rule="evenodd" clip-rule="evenodd" d="M18 12a6 6 0 1 1-12 0 6 6 0 0 1 12 0Zm-9.938 0a3.938 3.938 0 1 0 7.876 0 3.938 3.938 0 0 0-7.876 0Z"/><path d="M20.485 3.515a1 1 0 0 0-1.414 0l-1.414 1.414a1 1 0 0 0 1.414 1.414l1.414-1.414a1 1 0 0 0 0-1.414ZM1 13a1 1 0 1 1 0-2h2a1 1 0 1 1 0 2H1ZM3.515 3.515a1 1 0 0 0 0 1.414l1.414 1.414A1 1 0 0 0 6.343 4.93L4.93 3.515a1 1 0 0 0-1.414 0ZM11 21a1 1 0 1 1 2 0v2a1 1 0 1 1-2 0v-2ZM6.343 17.657a1 1 0 0 0-1.414 0L3.515 19.07a1 1 0 1 0 1.414 1.414l1.414-1.414a1 1 0 0 0 0-1.414ZM21 13a1 1 0 1 1 0-2h2a1 1 0 1 1 0 2h-2ZM17.657 17.657a1 1 0 0 0 0 1.414l1.414 1.414a1 1 0 0 0 1.414-1.414l-1.414-1.414a1 1 0 0 0-1.414 0Z"/></g></symbol><symbol viewBox="0 0 16 16" id="tags" xmlns="http://www.w3.org/2000/svg"><path fill="currentColor" fill-rule="evenodd" d="m10.884 6.995-4.12 4.12a.75.75 0 0 1-1.055.005L1.906 7.395a.75.75 0 0 1-.011-1.06l4.118-4.21a1.25 1.25 0 0 1 .894-.375H10.5a.75.75 0 0 1 .75.75v3.61c0 .332-.132.65-.366.885M4.94 1.077A2.75 2.75 0 0 1 6.907.25H10.5a2.25 2.25 0 0 1 2.25 2.25v.75h.75a2.25 2.25 0 0 1 2.25 2.25v3.61c0 .73-.29 1.43-.806 1.946l-4.12 4.12a2.25 2.25 0 0 1-3.165.016l-3.803-3.726a2.264 2.264 0 0 1-.286-.341L.856 8.466a2.25 2.25 0 0 1-.033-3.18l4.118-4.21Zm2.242 11.548a2.25 2.25 0 0 0 .642-.45L11.52 8.48a1.25 1.25 0 0 0 1.206-2.01c.015-.118.023-.237.023-.358V4.75h.75a.75.75 0 0 1 .75.75v3.61c0 .332-.132.65-.366.885l-4.12 4.12a.75.75 0 0 1-1.055.005zM8.75 5.5a1.25 1.25 0 1 1 0-2.5 1.25 1.25 0 0 1 0 2.5" clip-rule="evenodd"/></symbol><symbol viewBox="0 0 448 512" id="user" xmlns="http://www.w3.org/2000/svg"><path fill="currentColor" d="M319.4 320.6 224 416l-95.4-95.4C57.1 323.7 0 382.2 0 454.4v9.6c0 26.5 21.5 48 48 48h352c26.5 0 48-21.5 48-48v-9.6c0-72.2-57.1-130.7-128.6-133.8M13.6 79.8l6.4 1.5v58.4c-7 4.2-12 11.5-12 20.3 0 8.4 4.6 15.4 11.1 19.7L3.5 242c-1.7 6.9 2.1 14 7.6 14h41.8c5.5 0 9.3-7.1 7.6-14l-15.6-62.3C51.4 175.4 56 168.4 56 160c0-8.8-5-16.1-12-20.3V87.1l66 15.9c-8.6 17.2-14 36.4-14 57 0 70.7 57.3 128 128 128s128-57.3 128-128c0-20.6-5.3-39.8-14-57l96.3-23.2c18.2-4.4 18.2-27.1 0-31.5l-190.4-46c-13-3.1-26.7-3.1-39.7 0L13.6 48.2c-18.1 4.4-18.1 27.2 0 31.6"/></symbol></svg>